
Genre: Adventure | Drama | Western
Language:English
 
http://www.imdb.com/title/tt1403865/

Source:Imagine Thx.


Format : MPEG-4
Format profile : Base Media
Codec ID : isom
File size : 1.26 GiB
Duration : 1h 50mn
Overall bit rate : 1 630 Kbps
Movie name : True Grit 2010 Scr H264 Feel-Free


Video
Format settings, CABAC : Yes
Format settings, ReFrames : 4 frames
Codec ID : avc1
Codec ID/Info : Advanced Video Coding
Duration : 1h 50mn
Bit rate mode : Variable
Bit rate : 1 500 Kbps
Width : 720 pixels
Height : 304 pixels
Display aspect ratio : 2.35:1
Frame rate mode : Constant
Frame rate : 23.976 fps
Color space : YUV
Chroma subsampling : 4:2:0
Bit depth : 8 bits
Scan type : Progressive
Bits/(Pixel*Frame) : 0.286
Stream size : 1.15 GiB (92%)

Audio
ID : 2
Format : AAC
Format/Info : Advanced Audio Codec
Format version : Version 4
Format profile : LC
Codec ID : 40
Duration : 1h 50mn
Bit rate mode : Variable
Bit rate : 128 Kbps
Channel(s) : 2 channels
Channel positions : Front: L R
Sampling rate : 44.1 KHz
Stream size : 101 MiB (8%)


Plot:
A tough U.S. Marshal helps a stubborn young woman track down her father's murderer.
 
http://shareimage.org/images/tfdjusxlyszczmvzfxol.png
 
http://shareimage.org/images/x26tluiusx4gp6mzqn.png
 
http://shareimage.org/images/q9wdb9izw7wpj2dg82.png
 
http://shareimage.org/images/qsib7dsfilvlpuwd10oe.png